<svg xmlns="http://www.w3.org/2000/svg" width="51" height="54" fill="none" viewBox="0 0 51 54">
  <path fill="url(#a)" fill-rule="evenodd" d="m0 27.588.003-.27.005-.272.008-.27.01-.27.015-.272.016-.27.02-.27.021-.271.025-.27.027-.271.03-.27.033-.27.036-.27.039-.27.04-.268.045-.27.047-.268.05-.268.052-.268.055-.267.057-.267.061-.267.063-.266.066-.265.069-.265.071-.265.075-.264.077-.263.08-.262.082-.262.085-.26.087-.261.09-.26.094-.259.096-.258.098-.257.101-.256.104-.256.106-.254.11-.253.11-.253.115-.252.117-.25.12-.25.122-.248.124-.247.127-.246.13-.245.133-.244.134-.242.138-.242.14-.24.142-.239.145-.237.147-.236.15-.235.152-.233.155-.232.157-.23.16-.23.162-.227.164-.226.167-.225.169-.223.171-.221.174-.22.176-.218.178-.217.18-.215.183-.213.185-.211.188-.21.19-.208.19-.206.195-.204.196-.203.198-.2.2-.2.202-.196.205-.195.206-.193.209-.19.21-.19.213-.187.215-.185.216-.183.219-.18.22-.18.223-.176.224-.175.226-.172.228-.17.23-.169.231-.166.233-.163.236-.162.236-.159.239-.157.24-.154.242-.153.243-.15.246-.147.246-.145.249-.143.25-.14.25-.139.254-.135.254-.134.256-.13.257-.129.259-.125.26-.124.261-.12.263-.119.264-.115.265-.114.267-.11.268-.108.269-.105.27-.103.271-.1.272-.098.274-.095.274-.092.276-.09.277-.086.277-.084.279-.082.28-.078.28-.076.281-.073.282-.071.283-.068.284-.065.285-.062.285-.06.286-.056.287-.054.287-.05.288-.049.288-.045.29-.043.29-.04.29-.036.29-.034.291-.032.292-.028.292-.025.292-.023.292-.02L28.376 0l.09 7.626h.051l.217-.001.218.002.217.004.218.006.217.008.217.01.218.013.218.015.217.017.218.019.217.021.217.023.217.026.217.028.217.03.216.031.217.035.216.036.216.038.216.041.215.043.215.045.214.047.215.049.213.051.214.054.213.055.212.058.212.06.212.062.211.064.21.066.21.069.21.07.208.073.209.075.207.076.207.08.206.08.205.083.205.085.203.087.203.09.203.09.201.094.2.095.2.098.199.099.198.101.197.104.196.105.195.107.194.11.192.111.192.114.191.115.19.117.189.119.187.121.187.123.185.125.184.127.183.128.182.13.18.133.179.134.178.136.176.138.176.14.173.141.173.143.171.145.17.147.168.149.167.15.166.152.164.154.162.155.161.157.16.159.158.16.156.162.155.164.153.165.152.167.15.169.148.17.147.171.145.173.143.175.142.176.14.177.138.18.136.18.135.182.132.183.131.185.13.186.127.188.125.189.124.19.121.191.12.193.118.194.116.195.114.197.112.198.11.199.109.2.106.201.104.203.102.203.1.205.098.206.096.207.094.208.092.209.09.21.088.21.085.212.084.213.081.214.08.215.076.215.075.217.073.217.07.218.069.219.066.22.064.22.062.221.06.222.056.223.055.223.053.224.05.224.049.226.046.225.044.227.04.226.04.228.037.227.034.229.032.229.03.229.028.23.025.23.023.23.02.23.019.231.016.231.013.232.011.231.009.233.006.232.004.232.002.232v.233l-.004.233-.005.233-.008.232-.01.233-.013.233-.015.233-.017.233-.02.233-.022.232-.024.233-.027.232-.03.233-.031.232-.034.232-.037.231-.038.232-.042.23-.043.232-.046.23-.048.23-.051.23-.053.23-.055.229-.058.228-.06.228-.063.228-.065.227-.067.226-.07.227-.071.225-.074.225-.077.224-.079.223-.08.223-.084.222-.086.222-.088.22-.09.22-.093.22-.095.218-.097.217-.1.217-.101.216-.104.214-.106.214-.109.213-.11.212-.113.211-.115.21-.117.21-.12.207-.121.207-.124.206-.126.204-.128.203-.13.203-.133.2-.134.2-.137.2-.138.197-.14.196-.144.194-.145.194-.146.192-.15.19-.15.19-.153.188-.155.186-.157.185-.158.184-.161.182-.163.18-.164.18-.167.177-.168.176-.17.175-.173.172-.174.172-.175.17-.178.167-.18.166-.18.165-.183.163-.185.16-.186.16-.188.158-.19.155-.191.154-.194.152-.194.15-.197.149-.197.147-.2.144-.201.143-.203.141-.204.139-.206.137-.207.135-.208.133-.21.13-.212.13-.213.127-.214.125-.216.123-.217.12-.218.12-.22.116-.22.114-.223.113-.224.11-.224.108-.226.106-.227.103-.228.102-.23.1-.23.096-.232.095-.232.093-.234.09-.235.088-.235.086-.237.084-.237.08-.239.08-.24.076-.24.074-.241.072-.242.07-.243.067-.244.065-.244.062-.245.06-.246.058-.247.056-.247.052-.248.05-.248.049-.25.046-.25.043-.25.04-.25.039-.252.036-.251.033-.252.03-.253.03-.253.025-.254.024-.253.02-.254.019-.255.016-.254.013-.255.011-.255.009-.256.006-.255.003-.256.001-.255-.002-.256-.004-.256-.006-.256-.01-.256-.011-.256-.015-.256-.017-.256-.019-.255-.022-.256-.024-.256-.027-.255-.03-.255-.031-.255-.035-.255-.037-.254-.04-.254-.042-.254-.044-.253-.048-.253-.05-.253-.051-.252-.055-.252-.057-.251-.06-.251-.062-.25-.065-.25-.067-.25-.07-.248-.072-.248-.075-.247-.077-.247-.08-.246-.082-.245-.084-.244-.088-.244-.089-.242-.092-.242-.094-.242-.097-.24-.1-.24-.1-.237-.105-.238-.106-.236-.11-.236-.11-.234-.114-.233-.116-.233-.118-.23-.12-.23-.124-.23-.125-.227-.127-.227-.13-.225-.132-.224-.135-.223-.136-.221-.14-.22-.14-.219-.144-.217-.146-.216-.148-.214-.15-.214-.152-.211-.154-.21-.157-.21-.158-.206-.161-.206-.163-.204-.165-.202-.167-.2-.17-.2-.17-.197-.174-.196-.175-.194-.177-.193-.18-.19-.18-.19-.184-.186-.185-.185-.187-.184-.189-.181-.19-.18-.193-.178-.195-.176-.196-.174-.199-.172-.2-.17-.201-.168-.204-.166-.205-.164-.207-.162-.209-.16-.21-.157-.212-.156-.214-.154-.215-.151-.217-.15-.218-.147-.22-.145-.222-.143-.223-.14-.225-.138-.226-.137-.227-.133-.23-.132-.23-.13-.232-.126-.233-.125-.234-.122-.236-.12-.237-.118-.239-.115-.24-.113-.24-.11-.242-.108-.244-.105-.244L2 37.79l-.101-.246-.098-.248-.096-.25-.093-.25-.09-.25-.089-.252-.085-.253-.083-.254-.08-.255-.079-.255-.075-.257-.073-.257-.07-.258-.067-.26-.065-.26-.063-.26-.06-.26-.056-.263-.055-.262-.052-.264-.049-.264-.046-.264-.044-.265-.041-.266-.038-.266-.036-.266-.033-.267-.03-.268-.028-.268-.025-.268-.022-.268-.02-.27-.016-.268-.014-.27-.01-.27-.01-.27-.005-.27-.003-.27v-.27ZM26.007 7.785l-.06-5.197-.059.005-.267.029-.266.031-.266.034-.265.036-.264.04-.265.04-.263.045-.264.047-.262.049-.262.052-.26.054-.262.057-.259.06-.26.061-.257.065-.258.067-.257.07-.256.072-.254.074-.255.077-.253.08-.252.081-.25.085-.251.086-.25.09-.248.091-.247.094-.246.097-.245.098-.244.102-.242.103-.242.106-.24.108-.24.11-.237.113-.237.115-.235.118-.234.119-.233.122-.23.124-.23.126-.23.129-.226.13-.226.133-.224.135-.223.137-.22.14-.22.14-.218.144-.217.146-.214.147-.214.15-.211.151-.21.154-.209.155-.206.158-.205.16-.204.161-.2.163-.2.166-.198.167-.196.169-.194.17-.193.173-.19.175-.19.176-.186.178-.185.18-.183.182-.18.183-.18.185-.177.186-.174.188-.174.19-.17.192-.17.193-.167.194-.164.197-.163.197-.16.2-.16.2-.156.202-.154.204-.152.205-.15.206-.148.208-.146.209-.143.21-.141.212-.14.213-.136.214-.134.216-.133.216-.13.218-.127.22-.125.22-.123.22-.121.223-.119.223-.116.225-.113.226-.112.226-.108.227-.107.229-.104.23-.102.23-.1.23-.097.233-.094.233-.092.233-.09.235-.087.235-.085.236-.083.236-.08.238-.077.238-.075.239-.073.239-.07.24-.068.24-.065.241-.062.241-.06.242-.058.243-.055.243-.053.243-.05.244-.048.244-.045.244-.043.244-.04.245-.037.246-.035.245-.033.246-.03.246-.027.246-.025.246-.023.246-.02.246-.017.247-.015.246-.013.247-.01.246-.007.247-.005.246-.002.246v.246l.003.246.005.246.007.246.01.245.013.246.015.245.018.244.02.245.023.244.025.244.027.243.03.243.033.242.035.242.037.242.04.241.042.24.045.24.047.24.05.239.051.238.054.238.057.237.06.236.06.236.064.234.067.234.068.233.07.233.074.232.076.23.077.23.08.23.083.227.084.227.087.227.09.225.091.224.094.223.096.222.098.221.1.22.102.22.105.217.107.217.109.215.11.214.114.213.115.212.118.21.12.21.12.208.124.206.126.206.128.204.13.202.13.202.135.2.135.198.138.197.14.195.14.194.144.193.145.19.147.19.149.188.15.186.153.185.154.183.156.181.158.18.16.178.161.177.163.175.165.173.166.171.168.17.17.168.171.166.173.164.174.163.176.16.178.16.179.157.18.155.183.153.183.152.185.15.186.147.188.146.19.144.19.141.192.14.193.138.194.136.196.134.197.132.198.13.2.128.2.126.202.124.203.122.204.12.205.117.206.116.207.113.209.111.21.11.21.107.21.105.213.102.213.101.214.099.215.096.216.094.217.092.217.09.219.088.218.085.22.083.22.081.222.079.222.077.222.074.224.072.223.07.225.067.224.066.226.063.226.06.226.06.227.056.228.054.227.051.229.05.228.047.229.045.23.043.229.04.23.038.23.036.23.033.23.032.231.029.23.026.232.024.231.023.231.02.231.017.232.015.231.013.231.01.232.009.23.006.232.004.231.001h.231l.23-.004.231-.005.23-.008.231-.01.23-.012.23-.014.23-.017.229-.019.228-.02.229-.024.228-.026.228-.028.227-.03.227-.032.226-.035.226-.037.226-.039.225-.04.224-.044.223-.046.224-.047.222-.05.222-.052.221-.055.22-.056.22-.058.22-.061.218-.063.218-.065.217-.067.216-.069.215-.071.214-.073.214-.076.212-.077.212-.08.21-.081.21-.083.209-.086.208-.087.207-.09.205-.092.205-.093.204-.095.202-.098.201-.1.2-.1.2-.104.198-.105.197-.107.195-.108.194-.111.193-.113.193-.114.19-.116.19-.118.187-.12.187-.122.185-.123.184-.125.182-.127.181-.129.18-.13.178-.132.177-.134.175-.135.174-.137.172-.139.171-.14.17-.142.168-.143.166-.145.164-.146.163-.148.162-.15.16-.151.157-.152.157-.155.155-.155.153-.157.152-.158.15-.16.147-.16.147-.164.144-.163.143-.166.14-.166.14-.168.138-.169.135-.17.134-.171.132-.173.13-.174.129-.175.126-.176.125-.178.122-.178.121-.18.12-.18.116-.182.115-.183.113-.183.111-.185.11-.186.107-.187.105-.188.104-.188.101-.19.1-.19.097-.192.095-.191.093-.193.092-.194.09-.195.086-.195.086-.196.083-.196.08-.198.08-.198.077-.198.075-.2.072-.2.071-.2.069-.202.067-.202.064-.202.062-.203.06-.203.059-.204.056-.204.054-.205.051-.204.05-.206.048-.206.045-.206.044-.206.04-.207.04-.207.037-.207.034-.207.033-.208.03-.208.029-.208.026-.208.024-.209.022-.208.02-.209.017-.208.016-.209.014-.208.01-.209.01-.209.007-.208.005-.208.002-.21.001-.208-.001-.208-.004-.208-.006-.208-.008-.207-.01-.208-.012-.207-.014-.207-.016-.207-.019-.207-.02-.205-.022-.207-.025-.205-.027-.205-.029-.204-.03-.205-.033-.204-.035-.203-.037-.203-.04-.203-.04-.201-.044-.202-.045-.2-.047-.201-.05-.2-.05-.199-.054-.198-.055-.198-.057-.197-.06-.196-.06-.196-.063-.195-.065-.194-.067-.194-.069-.192-.07-.192-.074-.191-.074-.19-.077-.19-.078-.188-.08-.187-.082-.188-.084-.185-.086-.185-.088-.184-.089-.182-.091-.183-.093-.18-.095-.18-.097-.179-.098-.177-.1-.177-.102-.175-.104-.175-.105-.173-.107-.172-.108-.171-.11-.17-.113-.168-.113-.167-.116-.167-.116-.165-.119-.163-.12-.162-.121-.162-.124-.16-.124-.158-.127-.157-.127-.155-.13-.155-.13-.153-.133-.151-.133-.15-.136-.15-.137-.147-.137-.145-.14-.145-.14-.143-.142-.141-.144-.14-.145-.139-.146-.136-.148-.136-.148-.134-.15-.132-.151-.13-.153-.13-.154-.128-.154-.126-.156-.124-.158-.123-.158-.12-.16-.12-.16-.118-.162-.116-.163-.115-.163-.113-.166-.111-.165-.11-.167-.107-.168-.106-.17-.104-.169-.103-.17-.1-.172-.1-.173-.097-.173-.095-.175-.094-.175-.092-.175-.09-.177-.089-.178-.086-.178-.085-.18-.083-.179-.081-.18-.08-.187-.08-.176-.072-.183-.074-.183-.072-.184-.07-.184-.068-.185-.067-.185-.064-.186-.063-.187-.06-.187-.06-.187-.056-.188-.055-.188-.054-.19-.051-.188-.05-.19-.047-.19-.045-.19-.044-.19-.042-.191-.04-.191-.038-.192-.036-.191-.034-.192-.032-.192-.03-.192-.029-.192-.026-.193-.025-.193-.022-.192-.021-.193-.019-.193-.017-.193-.015-.193-.013-.193-.011-.192-.01-.194-.007-.192-.005-.193-.004-.192-.001h-.232l.06 5.16h.251l.14.003.142.003.14.005.142.007.14.008.142.009.141.01.141.013.142.013.14.015.142.016.141.018.14.019.142.02.14.022.141.024.14.025.141.026.14.027.14.03.14.03.14.032.14.033.14.035.138.036.139.037.138.04.139.04.138.041.137.043.137.045.137.046.137.047.136.049.136.05.135.052.135.053.135.054.134.055.133.058.133.058.133.06.132.06.131.063.131.064.131.065.13.067.13.068.128.069.128.07.128.072.127.073.126.075.125.076.125.077.124.078.124.08.123.081.122.082.121.084.12.085.12.086.12.087.117.089.118.09.116.09.116.093.114.093.114.095.113.096.113.097.11.099.111.099.11.1.108.103.107.102.107.105.105.105.105.106.103.108.103.108.101.11.1.111.1.112.098.113.097.114.096.115.095.116.094.117.093.118.091.12.091.12.09.12.087.123.087.123.086.124.084.125.084.126.082.127.08.128.08.128.078.13.077.13.076.132.075.132.073.133.072.133.07.135.07.135.067.137.067.137.065.137.064.139.062.139.061.14.06.14.058.142.057.142.056.143.053.143.053.144.051.144.05.146.048.146.047.146.045.147.044.147.043.148.04.15.04.148.038.15.036.15.035.15.034.152.031.151.03.152.03.152.027.153.025.153.025.153.022.154.021.154.02.155.018.155.016.155.015.155.013.156.012.155.01.157.008.156.007.156.005.157.004.157.002.157v.157l-.001.157-.003.157-.004.158-.006.157-.008.158-.01.157-.01.158-.013.157-.014.158-.016.157-.017.158-.019.157-.02.158-.023.157-.024.157-.025.157-.027.157-.03.157-.03.156-.032.157-.033.156-.036.156-.037.156-.038.155-.04.155-.042.155-.043.154-.045.155-.047.154-.048.153-.05.153-.051.153-.053.153-.055.152-.056.151-.058.151-.06.15-.06.15-.063.15-.064.15-.066.148-.067.148-.068.148-.07.147-.073.146-.073.146-.075.145-.077.144-.078.144-.08.143-.08.142-.083.142-.084.141-.086.14-.087.14-.089.139-.09.137-.092.137-.093.137-.094.135-.096.135-.097.134-.1.133-.1.132-.101.13-.103.13-.105.13-.106.128-.107.128-.109.126-.11.126-.111.124-.113.123-.114.123-.115.121-.117.12-.118.12-.12.117-.12.117-.122.116-.123.115-.124.114-.126.112-.127.111-.128.11-.13.11-.13.107-.132.106-.133.105-.134.104-.135.103-.136.102-.138.1-.138.099-.14.097-.14.096-.143.095-.143.094-.144.092-.145.09-.146.09-.147.088-.148.087-.149.085-.15.084-.151.083-.152.08-.153.08-.154.078-.154.077-.156.075-.156.073-.158.072-.158.071-.159.07-.16.067-.16.066-.161.064-.162.063-.163.062-.164.06-.164.058-.165.056-.166.055-.166.054-.167.051-.168.05-.168.05-.169.046-.17.045-.17.044-.17.042-.171.04-.172.039-.172.037-.173.035-.173.034-.173.032-.174.03-.175.029-.175.026-.175.025-.176.024-.176.021-.176.02-.177.019-.176.016-.178.015-.177.013-.178.01-.178.01-.178.008-.178.006-.179.004-.178.002-.18.001h-.178l-.179-.004-.18-.005-.178-.006-.18-.008-.179-.01-.179-.012-.18-.013-.178-.016-.18-.017-.179-.019-.179-.02-.179-.023-.178-.024-.18-.026-.178-.028-.178-.03-.178-.031-.178-.033-.178-.035-.177-.037-.178-.038-.177-.04-.176-.043-.177-.044-.175-.045-.176-.048-.175-.049-.175-.05-.175-.053-.174-.055-.173-.056-.173-.058-.173-.06-.172-.061-.172-.063-.17-.065-.171-.067-.17-.068-.17-.07-.168-.072-.168-.074-.168-.075-.166-.077-.166-.078-.166-.08-.164-.083-.164-.084-.163-.085-.163-.087-.161-.089-.161-.09-.16-.092-.16-.094-.158-.095-.157-.097-.156-.098-.156-.1-.155-.102-.153-.103-.153-.105-.152-.107-.15-.108-.15-.11-.15-.11-.147-.113-.146-.114-.146-.116-.144-.117-.144-.12-.142-.12-.14-.121-.14-.123-.14-.125-.137-.126-.136-.127-.136-.13-.133-.13-.133-.132-.131-.133-.13-.134-.13-.136-.127-.137-.126-.139-.125-.14-.123-.141-.122-.143-.12-.143-.12-.145-.118-.147-.116-.148-.115-.148-.114-.15-.112-.152-.11-.152-.11-.154-.107-.155-.106-.156-.105-.157-.103-.158-.101-.16-.1-.16-.099-.162-.096-.163-.095-.163-.094-.165-.092-.166-.09-.167-.089-.167-.086-.169-.086-.17-.083-.17-.082-.172-.08-.172-.079-.174-.076-.174-.075-.175-.074-.176-.071-.177-.07-.177-.068-.179-.066-.179-.064-.18-.063-.18-.06-.182-.06-.182-.057-.183-.055-.183-.053-.184-.052-.185-.05-.185-.047-.186-.046-.187-.045-.187-.042-.187-.04-.189-.038-.188-.037-.19-.035-.189-.032-.19-.031-.19-.029-.191-.027-.192-.025-.191-.023-.193-.02-.192-.02-.193-.017-.193-.015-.193-.014-.193-.01-.194-.01-.194-.007-.194-.006-.195-.003-.194-.002-.195.001-.195.003-.195.004-.195.007-.195.009-.195.01-.195.013-.195.014-.196.017-.195.019-.195.02-.195.023-.194.024-.195.027-.195.029-.194.03-.195.033-.194.034-.194.037-.193.039-.194.04-.193.043-.193.045-.192.046-.193.049-.192.05-.19.053-.192.054-.19.057-.19.058-.19.06-.19.063-.189.065-.188.066-.188.068-.187.07-.187.073-.186.074-.186.076-.184.078-.184.08-.184.082-.183.084-.182.085-.181.088-.181.09-.18.09-.179.094-.178.095-.178.097-.176.099-.176.1-.175.103-.174.104-.173.107-.172.108-.171.11-.17.111-.17.113-.168.116-.167.117-.166.118-.165.12-.164.123-.163.124-.162.126-.16.127-.16.129-.158.13-.157.133-.156.134-.155.136-.153.137-.152.14-.151.14-.15.142-.148.144-.147.145-.146.147-.144.149-.143.15-.142.151-.14.153-.138.155-.138.156-.135.157-.135.16-.132.16-.132.162-.13.163-.128.165-.127.166-.125.167-.123.169-.123.17-.12.172-.119.172-.117.174-.115.176-.114.176-.113.178-.11.179-.109.18-.107.182-.105.182-.104.184-.102.185-.1.186-.098.187-.097.188-.095.19-.093.19-.09.191-.09.192-.088.194-.085.194-.084.195-.082.197-.08.197-.078.198-.076.198-.075.2-.072.201-.07.201-.069.203-.066.203-.065.204-.062.204-.061.205-.059.206-.056.207-.055.207-.052.208-.051.209-.049.21-.046.209-.045.21-.042.211-.04.212-.039.212-.036.212-.034.213-.032.213-.03.214-.028.08-.01Zm.09 7.654-.06-5.217-.176.025-.188.028-.189.03-.187.032-.187.034-.187.036-.186.038-.186.039-.185.041-.184.043-.184.045-.184.046-.183.049-.176.048-.188.054-.18.053-.18.056-.18.056-.179.06-.178.06-.178.062-.176.064-.176.066-.175.067-.174.07-.173.07-.173.072-.172.074-.17.076-.17.077-.17.079-.168.08-.167.083-.166.083-.165.086-.165.087-.163.088-.162.09-.161.091-.16.093-.16.095-.157.096-.158.098-.155.099-.155.1-.153.102-.153.103-.151.105-.15.107-.149.107-.148.11-.146.11-.145.111-.144.113-.143.115-.142.116-.14.117-.139.118-.137.12-.136.121-.135.122-.134.124-.132.124-.131.126-.13.127-.127.129-.127.13-.126.13-.123.132-.123.132-.12.134-.12.136-.118.136-.117.137-.115.138-.114.14-.112.14-.11.141-.11.143-.107.143-.106.144-.104.146-.103.146-.101.147-.1.148-.098.149-.097.15-.095.15-.093.15-.092.153-.09.153-.089.154-.087.154-.085.155-.083.156-.082.157-.08.157-.08.159-.076.159-.075.159-.074.16-.072.16-.07.162-.069.161-.066.162-.065.163-.064.164-.062.164-.06.164-.058.165-.056.165-.055.166-.053.166-.052.167-.05.166-.047.168-.046.167-.044.168-.043.168-.04.17-.04.168-.037.17-.036.168-.034.17-.032.17-.03.17-.029.17-.027.17-.025.17-.023.171-.022.17-.02.172-.018.17-.016.171-.014.171-.013.171-.011.171-.01.17-.007.172-.006.17-.004.171-.002.17v.341l.004.171.004.17.007.17.008.17.01.17.011.168.013.17.015.168.017.169.018.168.02.168.022.168.024.167.025.167.027.166.029.166.03.166.032.165.033.165.036.165.037.164.038.163.04.163.042.162.043.162.045.161.047.16.048.161.05.16.052.159.053.158.054.157.056.157.058.157.06.155.06.155.062.154.064.154.066.153.067.151.068.152.07.15.071.15.073.148.074.148.076.147.077.146.079.146.08.144.081.144.083.142.084.142.086.14.087.14.088.14.09.137.091.137.092.136.094.134.095.134.096.133.098.132.099.13.1.13.1.128.103.127.104.127.105.125.106.123.108.123.108.122.11.12.11.12.112.118.113.117.115.115.115.115.116.113.118.112.118.111.12.11.12.108.121.107.123.105.123.105.125.103.125.101.126.1.128.1.128.098.129.096.13.095.13.094.132.092.133.091.133.09.134.088.135.087.136.085.136.084.137.083.138.081.139.08.139.078.14.077.14.075.142.074.142.073.142.07.144.07.143.069.145.066.145.065.145.064.146.062.147.06.147.06.147.058.148.056.149.054.149.053.149.052.15.05.15.049.15.047.15.045.152.044.151.043.152.04.152.04.153.038.152.036.153.035.153.034.154.031.153.03.154.03.153.026.154.026.154.024.155.022.154.021.154.02.155.017.154.017.155.015.155.013.154.011.155.01.154.01.155.006.154.006.155.004.154.002.154.001h.154l.154-.002.154-.004.154-.005.153-.007.153-.008.153-.01.153-.01.152-.013.153-.014.152-.016.152-.017.15-.019.152-.02.15-.022.151-.023.15-.024.15-.026.15-.028.148-.028.148-.03.149-.033.147-.033.147-.034.147-.037.146-.037.145-.039.145-.04.145-.042.144-.043.143-.044.143-.046.143-.048.141-.048.141-.05.14-.051.14-.053.14-.054.138-.055.137-.057.138-.058.136-.06.136-.06.134-.062.134-.063.134-.064.132-.066.132-.067.131-.068.13-.07.13-.07.128-.072.128-.073.127-.074.126-.075.125-.077.124-.078.123-.079.122-.08.122-.08.12-.083.12-.084.118-.084.118-.086.117-.087.115-.087.115-.09.113-.09.113-.09.112-.092.11-.093.11-.095.108-.095.107-.095.107-.098.105-.097.104-.1.103-.1.102-.1.1-.102.1-.102.099-.104.097-.104.096-.106.095-.106.094-.106.093-.108.091-.109.09-.11.09-.11.087-.11.087-.112.086-.113.084-.113.083-.114.081-.115.081-.115.08-.116.077-.117.077-.118.075-.118.075-.118.073-.12.071-.12.07-.12.07-.122.067-.121.067-.123.065-.122.064-.124.062-.124.061-.124.06-.125.058-.125.058-.126.055-.126.055-.127.053-.127.052-.127.05-.128.05-.129.047-.128.047-.13.044-.129.044-.13.042-.13.041-.13.04-.13.038-.13.037-.132.035-.131.034-.132.033-.132.03-.132.03-.132.03-.132.027-.133.025-.132.025-.133.023-.133.021-.133.02-.133.02-.133.017-.133.016-.133.014-.134.014-.133.012-.133.01-.134.01-.133.008-.133.006-.133.005-.133.004-.133.002-.133.001-.133v-.133l-.002-.133-.003-.132-.004-.132-.006-.132-.007-.132-.009-.132-.01-.132-.01-.13-.013-.132-.014-.13-.015-.131-.016-.13-.018-.13-.02-.13-.02-.13-.021-.129-.023-.128-.024-.129-.026-.128-.027-.127-.028-.127-.03-.127-.03-.127-.032-.125-.033-.126-.034-.125-.036-.125-.037-.124-.038-.124-.04-.123-.04-.122-.042-.123-.043-.121-.044-.121-.046-.12-.046-.12-.048-.12-.049-.119-.05-.118-.051-.118-.053-.116-.053-.116-.055-.116-.056-.115-.057-.114-.058-.114-.06-.113-.06-.112-.06-.112-.063-.11-.064-.11-.064-.11-.066-.109-.066-.107-.068-.108-.069-.106-.07-.105-.07-.105-.072-.104-.073-.103-.074-.102-.075-.102-.075-.1-.077-.1-.077-.099-.079-.098-.08-.097-.08-.096-.08-.095-.083-.095-.083-.093-.084-.093-.085-.092-.085-.09-.087-.09-.087-.089-.088-.088-.089-.087-.09-.086-.09-.085-.091-.084-.093-.083-.092-.082-.094-.08-.094-.08-.095-.08-.096-.078-.096-.076-.097-.077-.098-.074-.098-.074-.1-.073-.1-.072-.1-.07-.1-.07-.102-.068-.102-.068-.103-.066-.103-.065-.104-.064-.105-.064-.104-.061-.106-.061-.106-.06-.106-.058-.107-.058-.108-.057-.108-.055-.108-.054-.11-.053-.108-.052-.11-.05-.11-.05-.11-.049-.111-.047-.111-.046-.112-.045-.112-.044-.112-.042-.113-.042-.112-.04-.114-.04-.113-.038-.114-.037-.114-.035-.113-.035-.115-.033-.115-.032-.115-.032-.115-.03-.115-.028-.116-.028-.115-.026-.115-.025-.116-.024-.116-.023-.116-.021-.116-.021-.117-.02-.116-.018-.116-.017-.117-.015-.116-.015-.117-.013-.116-.013-.116-.01-.117-.01-.116-.01-.117-.007-.116-.006-.116-.006-.117-.004-.116-.003-.116-.002h-.195l.06 5.097h.103l.066.002.067.003.067.003.067.003.067.005.067.005.067.006.068.006.067.007.067.008.067.009.068.009.067.01.067.01.068.012.067.012.067.013.068.014.067.014.067.015.067.016.067.017.067.017.067.018.067.018.067.02.067.02.066.02.067.022.066.022.066.023.067.024.065.024.066.025.066.026.065.027.066.027.065.028.065.029.064.03.065.03.064.03.064.032.064.032.064.033.063.034.063.034.063.035.062.036.063.037.061.037.062.038.061.038.061.04.061.04.06.04.06.041.06.042.06.043.059.043.059.044.058.045.058.045.057.046.057.047.057.047.056.048.056.049.055.05.056.05.054.05.054.051.054.052.053.052.053.053.052.054.052.054.05.055.051.056.05.056.05.057.05.057.048.058.048.059.048.059.047.06.046.06.046.06.045.062.045.062.044.062.044.063.043.064.042.064.042.064.04.066.041.065.04.066.04.067.038.067.038.068.037.068.037.069.036.069.035.07.034.07.034.07.033.07.033.072.032.072.03.072.031.073.03.073.029.073.028.074.027.074.027.075.026.075.025.075.025.076.023.076.023.077.022.076.022.078.02.077.02.078.02.078.017.078.018.079.017.079.015.08.015.079.014.08.014.08.013.08.011.08.011.081.01.081.01.081.008.082.007.081.007.082.006.082.005.082.004.082.003.083.003.083.001.082.001.083v.083l-.001.083-.002.084-.003.083-.003.083-.005.084-.005.083-.007.084-.007.084-.008.083-.009.084-.01.084-.01.084-.012.083-.013.084-.013.084-.014.083-.015.084-.017.084-.017.084-.017.083-.02.084-.019.083-.02.083-.022.084-.022.083-.024.082-.024.083-.025.083-.026.083-.027.082-.027.082-.029.082-.03.082-.03.082-.031.081-.033.082-.033.08-.034.082-.035.08-.035.08-.037.08-.038.08-.038.08-.04.08-.04.078-.04.08-.043.077-.042.078-.044.078-.045.078-.045.077-.046.076-.048.077-.047.076-.05.075-.05.075-.05.075-.051.074-.052.074-.053.074-.054.073-.055.072-.055.072-.057.072-.057.071-.058.07-.059.07-.06.07-.06.07-.061.068-.062.068-.063.068-.063.067-.065.066-.065.066-.066.065-.066.065-.068.064-.068.064-.069.063-.07.062-.07.062-.071.06-.072.061-.072.06-.074.06-.074.057-.074.058-.076.057-.076.057-.076.055-.078.055-.078.055-.078.053-.08.053-.08.052-.08.051-.082.051-.082.05-.082.049-.083.048-.084.048-.085.047-.084.045-.086.046-.086.044-.087.044-.087.042-.087.042-.089.041-.088.04-.09.04-.09.038-.09.038-.09.037-.092.036-.092.035-.092.034-.093.033-.093.033-.094.031-.094.03-.094.03-.095.029-.096.028-.095.027-.096.026-.097.025-.097.024-.097.023-.098.022-.098.022-.098.02-.099.02-.099.018-.099.017-.1.017-.099.015-.1.014-.1.014-.101.012-.1.012-.102.01-.101.01-.102.008-.102.008-.102.006-.102.006-.102.004-.102.003-.103.003-.102.001h-.206l-.103-.002-.104-.003-.103-.004-.103-.004-.103-.006-.104-.007-.104-.008-.103-.01-.104-.01-.103-.01-.104-.013-.103-.013-.104-.014-.103-.016-.104-.016-.103-.017-.103-.019-.104-.02-.103-.02-.103-.022-.103-.022-.103-.024-.102-.025-.103-.026-.102-.027-.102-.028-.103-.029-.101-.03-.102-.031-.102-.032-.1-.034-.102-.034-.1-.035-.101-.037-.1-.037-.1-.039-.1-.04-.1-.04-.098-.042-.099-.042-.098-.044-.098-.045-.098-.046-.097-.046-.097-.048-.097-.049-.096-.05-.096-.05-.095-.053-.095-.053-.094-.053-.094-.055-.093-.056-.093-.057-.093-.058-.092-.059-.092-.06-.09-.06-.091-.062-.09-.063-.09-.064-.088-.065-.088-.065-.088-.067-.087-.067-.086-.069-.086-.07-.085-.07-.085-.07-.084-.073-.083-.073-.082-.074-.082-.075-.082-.076-.08-.077-.08-.077-.079-.079-.078-.08-.078-.08-.077-.08-.076-.082-.075-.083-.075-.084-.073-.084-.073-.085-.072-.086-.072-.087-.07-.088-.07-.088-.069-.09-.068-.09-.067-.09-.066-.092-.066-.093-.064-.093-.064-.094-.062-.094-.062-.095-.06-.096-.06-.097-.06-.097-.058-.098-.057-.1-.056-.099-.055-.1-.054-.1-.054-.102-.052-.102-.051-.102-.05-.103-.05-.105-.047-.104-.048-.105-.046-.106-.045-.106-.044-.106-.043-.108-.042-.107-.04-.109-.04-.109-.039-.109-.037-.11-.037-.11-.035-.11-.034-.112-.033-.112-.032-.112-.031-.113-.03-.113-.029-.113-.027-.114-.026-.114-.026-.114-.024-.115-.022-.116-.022-.115-.02-.116-.02-.116-.018-.117-.017-.117-.016-.117-.015-.117-.013-.118-.012-.118-.011-.118-.01-.118-.009-.119-.007-.119-.006-.119-.005-.119-.004-.119-.002-.12-.002-.119v-.12l.002-.12.002-.12.004-.12.005-.12.006-.12.007-.12.009-.12.01-.12.01-.12.013-.121.014-.12.015-.12.016-.12.017-.12.02-.121.02-.12.02-.12.023-.12.023-.12.025-.12.026-.119.028-.12.029-.118.03-.12.03-.118.033-.119.034-.118.035-.118.036-.118.037-.118.04-.117.04-.117.04-.117.043-.117.043-.116.045-.116.047-.115.047-.116.048-.114.05-.115.051-.114.053-.114.053-.113.055-.113.056-.112.057-.112.058-.111.06-.111.06-.11.062-.11.063-.11.065-.11.065-.108.067-.107.068-.108.069-.106.07-.107.07-.105.073-.105.074-.104.075-.104.075-.103.077-.102.079-.101.079-.101.08-.1.082-.1.082-.099.084-.098.084-.097.086-.097.087-.096.088-.095.089-.094.09-.093.09-.093.093-.092.093-.09.094-.09.095-.09.096-.088.097-.088.099-.087.099-.085.1-.085.1-.084.103-.083.102-.082.104-.08.105-.08.106-.08.106-.078.108-.077.108-.076.11-.076.11-.074.11-.073.112-.072.113-.07.113-.07.115-.07.115-.067.116-.067.116-.066.118-.064.118-.063.119-.063.12-.06.12-.06.121-.06.122-.057.122-.057.124-.055.124-.054.124-.053.125-.052.126-.05.127-.05.127-.048.128-.047.128-.046.129-.044.13-.044.13-.042.13-.04.13-.04.132-.038.132-.037.133-.035.133-.035.134-.033.133-.032.135-.03.135-.03.135-.027.136-.027.068-.012Zm1.667 9.801-1.546.372-.091-7.708-.073.017-.11.026-.11.027-.108.028-.11.029-.107.03-.108.032-.107.032-.108.033-.105.034-.107.036-.105.036-.105.038-.105.038-.103.04-.104.04-.103.041-.102.043-.102.043-.1.044-.102.045-.1.046-.1.048-.098.048-.098.049-.098.05-.097.05-.096.052-.096.052-.095.054-.095.054-.093.055-.094.057-.092.056-.091.058-.091.059-.09.06-.09.06-.09.06-.087.063-.088.062-.087.064-.085.064-.085.065-.085.066-.083.067-.083.067-.082.068-.082.07-.08.069-.08.07-.078.07-.078.072-.077.073-.076.073-.076.074-.075.074-.073.075-.073.076-.072.076-.072.077-.07.078-.07.078-.068.078-.067.08-.067.08-.066.08-.065.081-.064.082-.063.082-.062.082-.061.083-.06.084-.06.084-.058.085-.058.085-.057.086-.055.086-.055.086-.054.087-.052.087-.052.088-.05.088-.05.089-.05.089-.047.09-.048.089-.045.09-.046.09-.043.09-.043.092-.043.091-.04.092-.04.092-.04.092-.038.093-.037.093-.036.093-.035.093-.034.093-.033.094-.032.094-.03.094-.03.094-.03.095-.028.094-.027.095-.026.095-.025.095-.024.095-.023.096-.022.095-.02.096-.02.096-.02.095-.017.096-.017.096-.016.095-.015.096-.014.096-.013.096-.012.096-.01.096-.01.096-.01.096-.007.096-.007.096-.006.095-.005.096-.004.096-.003.095-.002.096v.285l.002.095.003.095.004.095.005.094.006.094.007.095.008.093.008.094.01.094.01.093.012.093.012.093.014.093.014.092.016.092.016.092.017.091.018.091.02.091.02.09.02.091.022.09.022.09.024.089.024.089.025.088.027.088.027.088.027.088.03.086.029.087.03.086.032.086.032.085.033.085.034.085.034.084.035.083.037.083.037.083.038.082.038.081.04.081.04.081.04.08.043.08.042.079.044.078.044.078.044.078.046.076.046.077.047.076.047.075.049.074.049.074.05.074.05.072.051.073.052.071.052.071.054.07.053.07.055.07.055.068.055.068.056.067.058.066.057.066.058.065.059.065.059.063.06.064.06.062.06.062.063.06.061.061.063.06.063.059.064.058.064.057.065.057.065.056.065.055.066.055.067.054.067.053.067.052.068.051.068.051.069.05.07.05.069.048.07.048.07.047.07.046.071.046.072.045.072.043.072.044.072.042.073.041.073.041.074.04.073.04.074.038.075.037.074.037.075.036.075.035.076.035.075.033.076.033.076.032.076.031.077.03.076.03.077.029.077.028.078.027.077.026.077.026.078.024.078.024.078.023.078.022.078.022.078.02.078.02.079.02.078.017.078.018.08.016.078.016.079.015.078.014.079.013.079.012.078.012.079.011.079.01.078.01.08.008.078.008.078.006.079.006.078.006.079.004.078.004.078.003.079.002.077.001h.234l.077-.002.078-.003.077-.003.077-.004.077-.005.077-.006.076-.006.077-.008.076-.007.076-.01.075-.008.076-.01.075-.011.075-.012.075-.012.075-.013.074-.014.074-.015.074-.015.073-.016.073-.017.073-.017.072-.018.073-.019.072-.02.071-.02.072-.02.07-.022.07-.022.072-.023.07-.023.069-.024.069-.025.069-.026.068-.026.068-.026.068-.028.067-.028.067-.029.066-.029.066-.03.066-.03.065-.031.065-.032.064-.032.064-.033.063-.034.063-.034.063-.034.061-.035.062-.036.061-.036.06-.037.06-.038.06-.038.059-.038.059-.039.058-.04.057-.04.057-.04.057-.041.056-.041.055-.042.055-.043.054-.043.054-.044.053-.043.053-.044.052-.045.052-.045.05-.046.051-.046.05-.047.05-.047.048-.047.048-.048.048-.048.047-.048.046-.05.046-.048.046-.05.044-.05.044-.05.043-.051.043-.051.043-.052.04-.051.042-.052.04-.053.04-.052.04-.053.038-.053.037-.054.038-.054.036-.054.036-.054.035-.055.035-.055.034-.055.033-.055.033-.056.032-.056.032-.056.03-.056.03-.056.03-.057.03-.057.028-.057.027-.057.027-.057.027-.058.025-.057.025-.058.025-.058.023-.058.023-.058.023-.058.022-.06.02-.057.021-.059.02-.059.019-.058.019-.06.017-.058.018-.06.016-.058.016-.06.015-.058.015-.06.014-.059.013-.059.013-.059.012-.06.011-.058.011-.06.01-.059.01-.059.008-.06.009-.058.007-.06.007-.058.007-.06.005-.058.005-.06.005-.058.003-.059.004-.058.002-.059.002-.058.001-.059.001-.058v-.116l-.001-.058-.002-.057-.002-.058-.003-.057-.004-.058-.004-.057-.005-.056-.005-.058-.006-.056-.006-.056-.007-.057-.008-.056-.008-.056-.008-.055-.01-.056-.01-.055-.01-.055-.01-.054-.012-.055-.012-.055-.013-.054-.013-.053-.014-.054-.014-.053-.014-.053-.016-.053-.015-.053-.017-.052-.016-.052-.018-.051-.018-.052-.018-.05-.018-.051-.02-.051-.02-.05-.02-.05-.02-.05-.022-.049-.021-.048-.022-.049-.023-.048-.023-.048-.023-.047-.024-.048-.024-.046-.025-.047-.025-.046-.026-.046-.026-.045-.026-.045-.027-.045-.028-.044-.027-.043-.028-.044-.029-.043-.029-.043-.029-.042-.03-.042-.03-.041-.03-.041-.03-.041-.031-.04-.032-.04-.032-.04-.032-.038-.032-.04-.033-.037-.033-.038-.033-.037-.034-.037-.034-.037-.034-.036-.035-.035-.034-.035-.035-.035-.036-.034-.036-.034-.036-.033-.036-.033-.036-.033-.037-.032-.037-.031-.037-.031-.038-.03-.037-.03-.038-.03-.038-.03-.038-.028-.039-.029-.039-.027-.038-.028-.04-.027-.039-.026-.04-.026-.039-.026-.04-.024-.04-.025-.04-.024-.04-.024-.04-.023-.04-.022-.041-.023-.04-.021-.042-.021-.04-.021-.042-.02-.041-.02-.041-.02-.042-.018-.041-.019-.042-.018-.041-.017-.042-.017-.042-.016-.042-.016-.042-.016-.041-.015-.043-.014-.041-.014-.042-.014-.042-.013-.043-.013-.042-.012-.042-.012-.042-.011-.042-.01-.042-.011-.042-.01-.042-.01-.042-.008-.042-.009-.042-.008-.042-.008-.042-.007-.042-.006-.042-.006-.041-.006-.042-.006-.042-.005-.041-.004-.042-.004-.041-.004-.042-.003-.04-.002-.042-.003-.041-.001-.04-.002h-.042l-.04-.001h-.121l-.04.002-.041.001-.04.002-.04.003-.04.002-.039.003-.039.004-.04.004-.038.004-.039.005-.039.005-.038.006-.038.006-.038.006-.038.006-.038.007-.038.008-.037.008-.037.008-.037.008Z" clip-rule="evenodd"/>
  <defs>
    <linearGradient id="a" x1="47.922" x2="-.386" y1="0" y2="58.55" gradientUnits="userSpaceOnUse">
      <stop stop-color="#FFB800"/>
      <stop offset="1" stop-color="#FFB800" stop-opacity="0"/>
    </linearGradient>
  </defs>
</svg>
